<svg xmlns="http://www.w3.org/2000/svg" viewBox="0 0 800 520" role="img" aria-label="Es dawet">
  <defs>
    <linearGradient id="bg" x1="0" y1="0" x2="1" y2="1">
      <stop offset="0%" stop-color="#0f766e"/>
      <stop offset="100%" stop-color="#14b8a6"/>
    </linearGradient>
  </defs>
  <rect width="800" height="520" rx="36" fill="url(#bg)"/>
  <circle cx="150" cy="110" r="190" fill="#ffffff" opacity="0.1"/>
  <ellipse cx="400" cy="374" rx="190" ry="78" fill="#fff7ed" opacity="0.95"/>
  <path d="M300 130h200l-28 250H328Z" fill="#f8fafc" opacity="0.95"/>
  <path d="M320 160h160l-20 180H340Z" fill="#fde68a"/>
  <path d="M340 180h120l-14 130H354Z" fill="#d97706" opacity="0.38"/>
  <path d="M348 184c22 22 36 44 40 65 4 20-1 45-15 74" fill="none" stroke="#16a34a" stroke-width="18" stroke-linecap="round"/>
  <path d="M394 188c18 18 29 39 33 62 4 23 1 44-8 64" fill="none" stroke="#22c55e" stroke-width="18" stroke-linecap="round"/>
  <path d="M440 186c20 19 31 40 34 64 3 24-1 46-12 68" fill="none" stroke="#15803d" stroke-width="18" stroke-linecap="round"/>
  <path d="M286 112l-40 90" stroke="#f8fafc" stroke-width="16" stroke-linecap="round"/>
  <path d="M514 112l40 90" stroke="#f8fafc" stroke-width="16" stroke-linecap="round"/>
  <path d="M314 102h172" stroke="#f8fafc" stroke-width="24" stroke-linecap="round"/>
</svg>
